<?xml version="1.0" encoding="utf-8"?>
<!-- Generator: Adobe Illustrator 23.0.6, SVG Export Plug-In . SVG Version: 6.00 Build 0)  -->
<svg version="1.1" id="Layer_1" xmlns="http://www.w3.org/2000/svg" xmlns:xlink="http://www.w3.org/1999/xlink" x="0px" y="0px"
	 viewBox="0 0 1080 1080" style="enable-background:new 0 0 1080 1080;" xml:space="preserve">
<style type="text/css">
	.st0{fill:#FFFFFF;}
</style>
<title>Kivot</title>
<path class="st0" d="M543,572.7h-37.2l-38.1-56.8c-1.3-2.3-2.5-4.7-3.5-7.2h-0.5v64h-29.4V442h29.4v61.8h0.5
	c0.7-1.7,1.9-4.1,3.6-7.3L504,442h35.1l-45.6,62.3L543,572.7z"/>
<path class="st0" d="M567.3,471.8c-4.4,0.2-8.7-1.4-11.9-4.3c-3-2.7-4.7-6.6-4.7-10.6c-0.1-4,1.6-7.9,4.7-10.6
	c3.1-2.7,7.1-4.1,11.9-4.1s8.9,1.4,12,4.1c3,2.7,4.7,6.5,4.6,10.6c0.1,4.1-1.6,8-4.6,10.8C576.2,470.4,572.2,471.8,567.3,471.8z
	 M581.5,572.7h-28.8v-93.3h28.8V572.7z"/>
<path class="st0" d="M694.6,479.4l-34.7,93.3h-32.8L594,479.4h30.8l16.2,57.5c1.6,5.4,2.7,11,3.2,16.6h0.4c0.7-5.4,1.8-10.8,3.4-16
	l16.6-58L694.6,479.4z"/>
<path class="st0" d="M751.4,575c-15.6,0-27.8-4.4-36.7-13.1c-8.9-8.7-13.3-20.6-13.3-35.5c0-15.4,4.6-27.5,13.8-36.2
	c9.2-8.7,21.7-13.1,37.5-13.1c15.5,0,27.6,4.4,36.5,13.1c8.8,8.7,13.2,20.2,13.2,34.6c0,15.5-4.5,27.7-13.6,36.7
	C779.6,570.5,767.2,575,751.4,575z M752.1,499.2c-6.8,0-12.1,2.3-15.8,7c-3.8,4.7-5.6,11.3-5.6,19.8c0,17.9,7.2,26.9,21.7,26.9
	c13.8,0,20.7-9.2,20.7-27.6C773,507.8,766,499.1,752.1,499.2L752.1,499.2z"/>
<path class="st0" d="M877.4,571.6c-4.3,2.2-10.7,3.4-19.2,3.4c-20.3,0-30.4-10.5-30.4-31.6v-42.8h-15.1v-21.2h15.1v-20.1l28.7-8.2
	v28.3h21v21.2h-21v37.7c0,9.7,3.9,14.6,11.6,14.6c3.3-0.1,6.5-1,9.4-2.7L877.4,571.6z"/>
<path class="st0" d="M434.6,636.3v-5.6c2.7,2.1,6,3.2,9.4,3.2c4.6,0,6.9-1.5,6.9-4.6c0-0.8-0.2-1.6-0.6-2.2c-0.4-0.6-1-1.2-1.6-1.6
	c-0.7-0.5-1.5-0.9-2.4-1.3c-0.9-0.4-1.9-0.8-2.9-1.2c-1.3-0.5-2.6-1.1-3.8-1.7c-1-0.5-1.9-1.2-2.7-2c-0.7-0.7-1.3-1.6-1.7-2.5
	c-0.4-1-0.6-2.2-0.5-3.3c0-1.4,0.3-2.8,1-4.1c0.7-1.2,1.7-2.2,2.8-3c1.2-0.8,2.6-1.4,4-1.8c1.5-0.4,3.1-0.6,4.6-0.6
	c2.6,0,5.2,0.5,7.6,1.5v5.3c-2.5-1.6-5.4-2.4-8.3-2.3c-0.9,0-1.8,0.1-2.6,0.3c-0.7,0.2-1.4,0.5-2,0.9c-0.5,0.4-1,0.9-1.3,1.5
	c-0.3,0.6-0.5,1.2-0.4,1.9c0,0.7,0.1,1.5,0.5,2.1c0.3,0.6,0.8,1.1,1.4,1.5c0.7,0.5,1.4,0.9,2.2,1.2c0.9,0.4,1.8,0.8,2.9,1.2
	c1.3,0.5,2.6,1.1,3.9,1.7c1.1,0.5,2.1,1.2,2.9,2c0.8,0.7,1.4,1.6,1.9,2.5c1,2.5,0.8,5.3-0.4,7.6c-0.7,1.2-1.7,2.2-2.9,3
	c-1.3,0.8-2.7,1.4-4.1,1.8c-1.6,0.4-3.2,0.6-4.9,0.6C440.3,638.3,437.3,637.6,434.6,636.3z"/>
<path class="st0" d="M533.4,637.1c-1.5,0.7-3.2,1.1-4.9,1c-5.7,0-8.6-3.2-8.6-9.6v-19.3h-5.6v-4.5h5.6v-8l5.2-1.7v9.7h8.2v4.5h-8.2
	v18.4c0,2.2,0.4,3.8,1.1,4.7c0.9,1,2.3,1.5,3.7,1.4c1.2,0,2.4-0.4,3.4-1.1L533.4,637.1z"/>
<path class="st0" d="M620.7,637.4h-5.2v-5.2h-0.1c-1.9,3.8-5.8,6.1-10.1,5.9c-7.8,0-11.7-4.6-11.7-13.9v-19.5h5.2v18.7
	c0,6.9,2.6,10.3,7.9,10.3c2.4,0,4.7-1,6.3-2.8c1.7-2.1,2.6-4.7,2.5-7.4v-18.8h5.2L620.7,637.4z"/>
<path class="st0" d="M713.1,637.4h-5.2v-5.5h-0.1c-2.4,4.2-6.2,6.3-11.2,6.3c-3.8,0.1-7.4-1.5-9.8-4.4c-2.5-2.9-3.7-6.9-3.7-11.9
	c0-5.4,1.4-9.7,4.1-13c2.7-3.2,6.7-5.1,10.9-4.9c4.5,0,7.7,1.8,9.8,5.3h0.1v-20.2h5.2L713.1,637.4z M707.9,622.7v-4.8
	c0.1-2.5-0.9-4.9-2.6-6.7c-1.7-1.8-4.1-2.8-6.6-2.7c-2.9-0.1-5.7,1.2-7.5,3.5c-1.8,2.3-2.7,5.6-2.7,9.7c0,3.8,0.9,6.7,2.6,8.9
	c1.7,2.2,4.3,3.4,7.1,3.3c2.7,0.1,5.3-1.1,7.1-3.2C707,628.4,708,625.6,707.9,622.7z"/>
<path class="st0" d="M780.4,596.5c-0.9,0-1.8-0.4-2.4-1c-0.7-0.6-1-1.5-1-2.4c0-1.8,1.4-3.4,3.3-3.4c0,0,0.1,0,0.1,0
	c0.9,0,1.8,0.4,2.4,1c1.3,1.3,1.3,3.5,0,4.8C782.2,596.2,781.3,596.5,780.4,596.5z M782.9,637.4h-5.2v-32.6h5.2V637.4z"/>
<path class="st0" d="M861.1,638.2c-4.8,0-8.7-1.5-11.5-4.6s-4.3-7.1-4.3-12.1c0-5.5,1.5-9.8,4.5-12.8c3-3.1,7-4.6,12.2-4.7
	c4.9,0,8.7,1.5,11.4,4.5s4.1,7.1,4.1,12.5c0,5.2-1.5,9.4-4.4,12.5C870,636.6,866.1,638.2,861.1,638.2z M861.5,608.4
	c-3.1-0.1-6,1.1-8,3.4c-2,2.3-2.9,5.4-2.9,9.5c0,3.9,1,6.9,3,9.2c2,2.2,4.9,3.5,7.9,3.3c3,0.2,5.8-1,7.8-3.3
	c1.8-2.2,2.7-5.3,2.7-9.3c0-4-0.9-7.2-2.7-9.4C867.4,609.5,864.5,608.3,861.5,608.4z"/>
<path class="st0" d="M386.9,540.2c0-2.4-1.9-4.3-4.3-4.3s-4.3,1.9-4.3,4.3s1.9,4.3,4.3,4.3l0,0C385,544.5,386.9,542.6,386.9,540.2z"
	/>
<path class="st0" d="M224.2,540.2c0-2.4-1.9-4.3-4.3-4.3s-4.3,1.9-4.3,4.3s1.9,4.3,4.3,4.3l0,0C222.3,544.5,224.2,542.6,224.2,540.2
	z"/>
<path class="st0" d="M203.2,638.3h196.1v-89.7H203.2V638.3z M357.9,592.9v-39.8h4.2v39.8l1.6,1.8l-1.7,8.4h-4.1l-1.6-8.5
	L357.9,592.9z M314,557l4-4h7l4,4v59h-15V557z M287.9,553c-0.4,13.3-1.8,24-1.9,25.2c0,0.7,0,1,0,1.2l1.8,14.5l-4.8,9.3l-4.8-9.3
	l1.7-14.3v-0.1c0-0.1,0-0.5,0-1.3c-0.1-1.2-1.5-11.9-1.9-25.2L287.9,553z M241.6,553h5.7v64.9h-5.7V553z"/>
<path class="st0" d="M203.2,442.2v89.7h196.1v-89.7H203.2z M260.8,504.2v0.4c0,0.9-0.7,1.6-1.6,1.6h-0.1c-4.7,0-7.3,2.4-7.3,4.5v3.3
	h1.5v-3.5c0-0.6,0.4-1,1-1h1.2c0.6,0,1,0.4,1,1c0,0,0,0,0,0v9.4c0,0.6-0.4,1-1,1h-1.2c-0.6,0-1-0.4-1-1v-3.6h-1.5v5.6
	c0,1.8,1.1,3,2.6,4.6c0.2,0.2,0.2,0.6,0,0.8c-0.1,0.1-0.2,0.2-0.4,0.1h-19.3c-0.3,0-0.5-0.2-0.5-0.5c0-0.1,0.1-0.3,0.1-0.4
	c1.5-1.6,2.6-2.7,2.6-4.6v-11.2c0-2.2-2.6-4.5-7.3-4.5h-0.1c-0.9,0-1.6-0.7-1.6-1.6v-0.4c-2.6-0.8-4.1-1.7-4.1-2.7
	c0-0.1,0.1-0.3,0.3-0.3h17.3v-25L240,475h8.7l-1.5,1.1v25h17.4c0.1,0,0.3,0.1,0.3,0.3C264.8,502.5,263.3,503.4,260.8,504.2
	L260.8,504.2z M279,527.4c1.1-10.2,1.6-20.5,1.6-30.9v-16.4l0,0c0-0.5,0.1-1.1,0.3-1.6c0.6-1.9,2-3.2,3.1-2.9
	c0.8,0.3,1.3,1.3,1.3,2.5l0,0v0.2l-0.1,1.7v16.4c0,10.3,0.5,20.6,1.6,30.8L279,527.4z M327.2,527.4h-11.5
	c-3.9-16.5-3.9-46.5-3.9-54.7c0-1.5,0.9-2.9,2.2-3.6c4.6-2.3,10.1-2.3,14.7,0c1.3,0.7,2.2,2.1,2.2,3.6
	C331.1,481,331,510.9,327.2,527.4L327.2,527.4z M368.9,507.4c0,0.8-0.4,1.5-1.1,1.9c-2.9,1.6-3.9,5.2-2.3,8c0.5,1,1.3,1.8,2.3,2.3
	c0.7,0.4,1.1,1.1,1.1,1.9v2.6c0.1,1.7-1.1,3.1-2.7,3.2c0,0,0,0,0,0h-12.5c-1.7-0.1-2.9-1.6-2.7-3.2c0,0,0,0,0,0v-2.6
	c0-0.8,0.4-1.6,1.1-1.9c2.9-1.6,3.9-5.2,2.3-8.1c-0.5-1-1.3-1.8-2.3-2.3c-0.7-0.4-1.1-1.1-1.1-1.9v-25.9c0-3.2,2.2-5.8,4.9-5.8h8.1
	c2.7,0,4.9,2.6,4.9,5.8L368.9,507.4z"/>
</svg>
