<svg id="Layer_1" data-name="Layer 1" xmlns="http://www.w3.org/2000/svg" viewBox="0 0 1080 1080"><defs><style>.cls-1{fill:#FFFFFF;}</style></defs><title>Grotesque</title><path class="cls-1" d="M712,550.15c0-9.13-25.82-27.18-36.53-71.34-18.26-75.34,6.48-131.6,34.42-176.29-47.81,27.6-78.56,71.33-89.26,126.76v-.09c-9.08,35.87-54.34,48.7-80.62,48.7s-71.54-12.83-80.62-48.7v.09c-10.7-55.43-41.45-99.16-89.26-126.76,27.94,44.69,52.68,101,34.42,176.29C393.82,523,368,541,368,550.15c0,16,24.42,20.55,24,36.53-.57,20.55-14.27,28.54-14.84,32-1.14,12,20.55,15.41,20.55,18.84s-16,12.55-16,17.69c0,6.85,17.12,6.85,17.12,27.39,0,16-11.13,43.66-.57,54.23,6.85,6.84,13.83,7.65,29.11,5.7,31-3.94,44.14,35,112.64,35s81.68-38.93,112.64-35c15.28,2,22.26,1.14,29.11-5.7,10.56-10.57-.57-38.2-.57-54.23,0-20.54,17.12-20.54,17.12-27.39,0-5.14-16-14.27-16-17.69s21.69-6.85,20.55-18.84c-.57-3.42-14.27-11.41-14.84-32C687.58,570.7,712,566.15,712,550.15ZM534.87,750.92A148.72,148.72,0,0,1,518,749.59V501.86A160.42,160.42,0,0,1,534.87,500ZM545.13,500a160.42,160.42,0,0,1,16.92,1.89V749.59a148.72,148.72,0,0,1-16.92,1.33Zm-84.6,213.57c-32-42.92-17.35-108.69-3.65-175.37,3.27-18.73,28-29.22,50.81-34.33V747.62C486.26,742.32,473.41,730.83,460.53,713.54Zm158.94,0c-12.88,17.29-25.73,28.78-47.16,34.08V503.84c22.83,5.11,47.54,15.6,50.81,34.33C636.82,604.85,651.43,670.62,619.47,713.54Z"/></svg>