<?xml version="1.0" encoding="utf-8"?>
<!-- Generator: Adobe Illustrator 23.0.6, SVG Export Plug-In . SVG Version: 6.00 Build 0)  -->
<svg version="1.1" id="Layer_1" xmlns="http://www.w3.org/2000/svg" xmlns:xlink="http://www.w3.org/1999/xlink" x="0px" y="0px"
	 viewBox="0 0 1080 1080" style="enable-background:new 0 0 1080 1080;" xml:space="preserve">
<style type="text/css">
	.st0{fill:#FFFFFF;}
</style>
<title>SoulLbdv</title>
<path class="st0" d="M571.5,593.6c0.7-2,1.2-3.4,1.6-4.9c0.8-2.5,1.6-5,2.5-7.5c0.6-1.8,1.3-3.5,2-5.2c0.3-0.9,0.7-1.8,1-2.7
	c1-2.6,1.9-5.3,2.8-7.9c0.2-0.5,0.3-1.1,0.5-1.6c0.6-2,1.3-4,1.9-6c0.5-1.4,1-2.7,1.4-4.1c0.7-1.8,1.3-3.7,2-5.5
	c0.4-1.1,0.7-2.2,1.1-3.3c0.9-2.7,1.9-5.4,2.8-8c0.5-1.4,1-2.8,1.5-4.3c0.8-2.4,1.7-4.8,2.5-7.2c0.9-2.7,1.7-5.4,2.6-8.2
	c0.7-2.2,1.4-4.5,2.2-6.6c0.9-2.4,1.9-4.7,2.8-7.1c0.1-0.3,0.3-0.5,0.3-0.8c1.2-4.1,2.3-8.3,3.5-12.4c0.7-1.7,1.5-3.4,2.4-5
	c0.1-0.2,0.2-0.4,0.3-0.5c0.7-2.7,1.3-5.4,2-8c0.3-1.1,1-2.1,1.4-3.2c0.7-1.9,1.2-3.8,1.8-5.8c1.2-4.1,2.3-8.2,4.5-12
	c0.2-0.5,0.3-1.1,0.4-1.6c0.5-1.6,0.9-3.2,1.4-4.7c0.2-0.5,0.2-1.1,0.3-1.6c0.4-1.1,0.8-2.2,1.2-3.2c0.2-0.3,0.3-0.7,0.4-1
	c0.5-3.1,1.6-6,3.1-8.8c0.7-1.9,1.3-3.8,1.6-5.8c0.7-2.6,1.2-5.3,2-7.9s1.9-5.1,2.9-7.6c0.1-0.1,0.1-0.3,0.2-0.4
	c0.6-2.7,1.1-5.4,1.9-8.1c0.8-3.1,1.9-6.1,2.8-9.2c0.6-2.1,1.2-4.3,1.8-6.4c0.4-1.2,1-2.3,1.4-3.5c0.2-0.5,0.3-0.9,0.3-1.4
	c0.1-1.9-0.3-4,1.4-5.5c0.1-0.1,0.1-0.3,0.2-0.4c0.6-3,1-5.9,1.7-8.8c0.9-3.9,2-7.8,3-11.7c0.1-0.4,0.1-0.8,0.2-1.3
	c0.6-3.4,0.6-7,2-10s0.6-5.9,1.5-8.5c1.4-4.2,0.7-8.6,2-12.6c1-3.1,1-6.1,1.4-9.2c0.5-3.5,0.6-7.1,1.7-10.4
	c1.5-4.2,0.8-8.4,1.3-12.5c0.4-3.6,1.1-7.1,1.3-10.6c0.3-4.1,0.2-8.2,0.2-12.3c0-1.3-0.1-2.6,0-3.8c0.7-7-1.1-13.9-2-20.8
	c-0.5-4.3-2.2-8.9-5.9-12.2s-10.1-3.2-13.2,1.5c-1.4,2.1-2.9,4.1-3.5,6.8c-0.3,1.6-1.6,2.9-2.4,4.4c-0.1,0.1-0.2,0.2-0.2,0.4
	c-0.7,2.7-1.3,5.4-2.1,8.1s-1.7,5-2.5,7.5s-1.5,5-2.3,7.5c-0.3,1-0.7,2.1-1.1,3.1c-0.1,0.2-0.3,0.5-0.4,0.8c-0.7,3.3-1.2,6.7-2,10
	s-1.8,6.8-2.7,10.2c0,0.1-0.1,0.3-0.1,0.4c-0.7,3.5-1,7.1-2,10.5c-1.3,4.4-0.7,9.1-1.9,13.3c-1.2,3.9-0.4,7.8-1.6,11.3
	s-0.5,7-1.6,10.1c-2.3,6.4-0.5,12.9-1.5,19.3c-2.1,12.8-1,25.7-1.2,38.5c0,3.3,1,6.6,1.2,10c0.3,4.4,0.1,8.8,0.3,13.2
	c0.3,1.9,0.6,3.8,1.1,5.7c0.2,1.5,0.3,3,0.4,4.4c0.2,2.5-0.6,5.1,1.3,7.3c0.1,0.2,0.2,0.5,0.2,0.8c0.1,3.3,0.2,6.7,0.2,10
	c-0.3,1.8-1.7,3.2-3.5,3.4c-1.5,0.2-2.8-0.8-3.1-2.2c0-0.2,0-0.3,0-0.5c-0.6-6-0.8-12.1-2.1-18c-1.5-6.5,0.1-13.3-1.5-19.5
	c-1.9-7.7-0.9-15.2-1.2-22.8s0-15.4,0.1-23.2c0.2-1.3,0.5-2.6,0.9-3.8c0.2-0.6,0.4-1.2,0.5-1.8c0.1-4,0.1-8.1,0.2-12.1
	c-0.1-0.7-0.2-1.4-0.4-2c-0.5,0.3-0.8,0.4-0.8,0.5c-0.7,2.5-1.2,5-2.1,7.4c-1.3,3.5-2.8,6.9-4.1,10.4c-0.8,2-1.5,4-2.3,6
	c-0.5,1.6-1.2,3.1-1.9,4.5c-2,3.4-4.1,6.8-6.2,10.2c-1.8,3-7.6,4.9-10.3,2.9c-1.4-1-2-3.2-2.8-4.9c-0.5-1.1-0.9-2.3-1.2-3.4
	c-0.3-0.8-0.4-1.6-0.5-2.5c-0.1-5.1-0.1-10.2-0.1-15.3c0-0.8-0.1-1.6-0.2-2.4l-0.5-0.1c-0.3,0.3-0.5,0.7-0.6,1.1
	c-0.3,4.8-2.8,8.9-4.7,13.1c-1.8,4-3.4,8.1-5.4,12c-1.9,3.9-4.1,7.6-6.6,11.2c-1,1.4-3,2-4.8,2.7c-1.2,0.5-4.5-2.5-5.2-4
	c-1.6-3.2-1.5-6.6-1.5-9.9c0-10.2,0-20.4,0.3-30.6c0.3-4.2,0.8-8.4,1.7-12.5c0.4-1.1,1.1-2.1,2-2.9c0.7-0.4,1.5-0.5,2.2-0.2
	c0.3,0.1,0.6,1.1,0.5,1.6c-0.3,3.5,0.2,6.9-1.1,10.4c-1,2.6-0.3,5.9-0.6,8.9c-0.2,2.5-0.7,5-1.1,7.6c-0.1,0.6-0.2,1.3-0.1,1.9
	c0.2,1.8,0.3,3.6,0.2,5.5c0,4,0.8,8.1,1.4,12.1c0.3,1.6,0.8,3.1,1.5,4.5c0.2,0.4,0.8,1,1.2,0.9c0.6-0.1,1.2-0.4,1.5-0.9
	c1.8-3.7,3.5-7.4,5.3-11.1c1.5-3.1,3.2-6.1,4.5-9.3c1.4-3.6,2.5-7.3,3.7-10.9c1-2.9,1.9-5.8,2.7-8.8c0.7-2.6,1.3-5.3,2-7.9
	c0.2-0.9,0.5-1.7,0.9-2.5c0.1-0.3,0.5-0.5,0.6-0.9c0.7-2.5,1.1-5.1,2-7.5c0.4-1.3,1.3-2.5,2.4-3.2c2.3-1.3,4.2,0,4,2.6
	c-0.2,2.1-0.5,4.1-1,6.1c-0.1,0.3-0.1,0.5-0.2,0.8c0,9.4-2.6,18.6-1.6,28.1c0.4,3.8,1,7.5,1.7,11.3c0.3,1.3,0.8,2.5,1.5,3.6
	c0.3,0.4,0.8,0.7,1.3,0.7c0.6-0.1,1.1-0.5,1.4-1c1.5-2.5,3-5,4.3-7.5c0.9-1.7,1.4-3.5,2.2-5.2c1-2.4,2.1-4.8,3.1-7.2
	c0.7-1.7,1.3-3.3,1.8-5.1c1.3-4.3,2.4-8.7,3.7-13c0.7-2.3,1.7-4.5,2.5-6.8c0.2-0.5,0.2-1.1,0.4-1.6c0.4-1.1,0.8-2.2,1.2-3.2
	c0.1-0.2,0.2-0.4,0.3-0.6c0.7-2.9,1.2-5.8,2-8.6c0.8-3,1.8-6,2.7-9c0.2-0.5,0.2-1,0.3-1.5c1-3.1,1.9-6.2,2.9-9.3
	c0.2-0.5,0.2-1.1,0.4-1.6c0.4-1.4,0.9-2.9,1.3-4.3c0.2-0.5,0.3-0.9,0.3-1.4c0.2-2.2,0.1-4.3,1.5-6.5c1.2-1.9,1.3-4.4,1.8-6.6
	c0.6-2.6,1.1-5.3,1.9-7.9c0.7-2.1,1.8-4.1,2.6-6.2c0.1-0.6,0.2-1.2,0.3-1.9c0.4-1.7,0.9-3.3,1.3-5c0.2-0.7,0.2-1.4,0.4-2.1
	c0.3-0.9,0.7-1.8,1-2.6c0.3-0.4,0.4-0.9,0.5-1.3c0.2-2.8,1.6-5.1,2.8-7.5c0.8-1.7,1.2-3.7,1.9-5.5c1.2-3.1,2-6.5,3.8-9.1
	c2.1-2.8,4.6-5.2,7.5-7.2c2-1.5,4.3-2.6,6.7-3.1c3.9-0.7,7.2,1.2,10.1,3.7c1.6,1.2,2.9,2.7,4.1,4.3c1.1,1.8,1.6,4,2.5,6
	c1.3,3,1.1,6.3,2,9.3c0.8,2.8,1.2,5.8,1.2,8.7c0,8.1,0.4,16.2-0.5,24.2c-0.6,4.9-0.8,9.8-1.2,14.7c-0.2,0.9-0.5,1.7-0.8,2.5
	c-0.3,0.7-0.5,1.4-0.6,2.2c-0.1,2.4,0.1,4.8-0.1,7.2c-0.5,4.9-1,9.8-1.7,14.6s-1.8,9.4-2.8,14.1c-0.1,0.7-0.1,1.4-0.3,2.1
	c-0.4,1.5-0.9,2.9-1.2,4.4c-0.2,1-0.4,2.1-0.4,3.1c-0.2,2.2,0.1,4.4-1.3,6.5c-0.7,1-0.2,2.6-0.5,4s-0.7,2.8-1.1,4.2
	c-0.1,0.2-0.2,0.4-0.3,0.6c-0.6,3.3-1.2,6.6-1.9,9.8c-0.7,3-1.7,5.8-2.6,8.7c-0.1,0.2-0.2,0.4-0.3,0.6c-0.7,3.1-1.3,6.1-2,9.2
	c-0.3,1.1-0.7,2.1-1.1,3.1c-0.2,0.4-0.3,0.9-0.5,1.4c-0.6,2.6-0.9,5.4-1.9,7.9c-1.5,3.9-2.6,8-3.4,12.1c-0.6,2.3-1.5,4.7-2.4,6.9
	c-0.1,0.2-0.2,0.4-0.2,0.6c-0.7,2.6-1.2,5.2-2.1,7.8c-0.7,2.1-1.7,4.2-2.5,6.3c-0.1,0.2-0.2,0.4-0.2,0.6c-0.7,3-1.4,6-2.2,8.9
	c-0.7,2.2-1.7,4.2-2.4,6.4c-0.8,2.4-1.5,4.8-2.3,7.2c-0.9,2.6-1.9,5.2-2.8,7.8c0,0.1-0.2,0.2-0.2,0.4c-1.1,3.4-2.2,6.8-3.2,10.3
	c-0.1,0.6-0.1,1.3-0.1,1.9c0,6.7,0,13.5,0.1,20.2c0.1,1.2,0.3,2.3,0.6,3.4c0.2,0.7,0.4,1.5,0.3,2.3c-0.8,5,0.5,10,0.3,15.1
	s-0.6,10.3,0.3,15.3c0.9,5.4,0.5,10.9,1.8,16.1c1.2,4.7,0.9,9.2,1.4,13.8c0.1,0.6,0.2,1.1,0.3,1.7c0.4,1.6,0.9,3.2,1.2,4.8
	c0.3,2.2-0.5,4.7,1.5,6.6c0.1,0.1,0.1,0.3,0.1,0.4c0.6,3.3,1.1,6.6,1.8,9.9c0.8,3.8,1.8,7.5,2.8,11.3c0.1,0.5,0.2,1,0.3,1.5
	c0.6,3.1,1,6.3,1.9,9.4c0.7,2.5,1.9,4.8,2.8,7.2c0.6,1.6,1.1,3.3,1.6,5c0.7,2.3,1.2,4.8,2,7c0.8,2.2,1.7,4.3,2.8,6.3
	c1.2,2.3,2.5,4.6,3.7,6.9c1.6,3.2,4.4,4.7,7.5,5.8c1.3,0.5,4.8-1.3,5.3-2.7c0.7-1.5,1.1-3.1,1.7-4.7c1-2.5,2-4.9,3-7.3
	c0.6-1.4,1.1-2.8,1.5-4.3c0.7-2.6,1-5.4,2-7.9c1.7-4,1.6-8.7,4.5-12.3c0.3-0.3,0.2-1,0.3-1.4c0.4-1.2,0.9-2.4,1.3-3.6
	c0.1-0.2,0.2-0.4,0.3-0.6c0.6-2.6,1.1-5.2,1.9-7.7c0.7-2.2,1.8-4.4,2.5-6.6c0.9-2.2,1.6-4.6,2-7c0.3-3.3,0.7-6.8-0.1-10
	c-2.2-8-0.5-16.2-1.7-24.2c-2.3-16-0.6-32-1.1-48.1c-0.2-5-0.6-10.2,0.3-15.1c1.4-7.9,0.7-15.8,1.6-23.6c0.3-3.3,0.3-6.8,1.5-9.7
	c1.7-4.2,0.9-8.5,1.6-12.6s1.8-8.1,2.7-12.2c0.7-3.1,1.3-6.3,2.1-9.4c0.7-2.6,1.7-5.1,2.6-7.6c0.7-2,1.4-4.1,2-6.1
	c1-3.5,2.5-6.8,4.5-9.9c1.4-2.2,2.3-4.8,3.8-6.9c1.5-2.1,3.3-3.9,5.3-5.6c1.7-1.4,6.3-0.1,7.8,1.9c3.3,4.8,5.1,10.5,5.2,16.3
	c0.1,0.6,0.2,1.2,0.4,1.9c0.6,1.5,1,3,1.2,4.6c0.1,5.3,0.3,10.6,0,15.9c-0.2,5.9-0.9,11.8-2.1,17.5c-0.8,3.5-0.5,7.1-1.5,10.4
	s-0.7,6.9-1.8,10.1c-0.9,2.6-0.9,5-1.4,7.5c-0.8,4.1-1.8,8.1-2.7,12.2c0,0.1-0.1,0.3-0.1,0.4c-0.6,4.2-1,8.4-2,12.5
	c-0.8,3.6-1.2,7.2-2,10.7c-0.5,2.3-0.6,4.9-1.6,6.8c-1.3,2.6-1,5.3-1.5,7.9c-1,5.6-2.1,11.1-3.4,16.6c-0.6,2.8-1.8,5.4-2.6,8.1
	c-0.1,0.6-0.2,1.3-0.2,1.9c-0.1,1.8,0.2,3.7-1.4,5.1c-0.1,0.1-0.1,0.2-0.2,0.4c-0.6,3.1-1.1,6.2-1.9,9.2c-0.7,2.7-1.8,5.3-2.8,8
	c-0.2,0.6-0.3,1.2-0.5,1.8c-0.3,1.2-0.5,2.4-0.9,4.2c1.5-0.7,2.8-1.3,4.1-1.9c1.1-0.6,2.3-1,3.6-1.4c1-0.2,2.1,0,3.2-0.1
	c2.3-0.5,4.8,0.4,6.3,2.2c1.4,1.8,2.6,3.9,3.5,6.1c3.1,7.8,1.4,16,1.3,24.1c0,3-1.4,6-2.5,9c-1,2.6-2.2,5-3.6,7.4
	c-2.4,3.8-5.9,6-10.5,5.3c-3.9-0.5-7.3-2.8-9.2-6.2c-2.1-3.6-3.7-7.3-3.6-11.6c0-1.5-1.2-3-1.9-4.5c-0.3,0.1-0.5,0.2-0.6,0.3
	c-0.7,2.6-1.2,5.2-2,7.7c-0.8,2.3-1.8,4.5-2.7,6.8c-0.2,0.5-0.3,1.1-0.5,1.6c-0.4,0.9-0.8,1.9-1.2,2.8c-0.1,0.2-0.3,0.3-0.4,0.5
	c-0.6,2.5-1.2,5-1.9,7.4s-1.6,4.8-2.4,7.1s-1.5,4.6-2.4,6.8c-0.4,1.2-1,2.4-1.7,3.5c-2.2,3-3.9,6.3-7.2,8.3c-1.7,1-7.7,0.8-9.4-0.2
	c-2-1.1-4-2.1-5.3-4.1c-1.5-2.3-3.2-4.6-4.5-7c-1.7-3.2-3.1-6.5-4.4-9.8c-0.9-2.4-1.3-4.9-2.1-7.3c-0.6-1.8-1.4-3.4-2-5.2
	c-0.4-1.1-0.7-2.2-1-3.4c-0.7-3-1.1-6-1.9-9c-0.6-2.2-1.8-4.2-2.6-6.3c-0.3-0.8-0.4-1.6-0.5-2.5c-0.2-1.9,0.3-3.9-1.5-5.3
	c-0.1-0.1-0.2-0.4-0.2-0.6c-0.6-5-1.2-10-1.9-15c-0.2-1.1-0.8-2.2-1.1-3.3c-0.7-3.8-1.5-7.5-2-11.3c-0.7-4.8-0.7-9.7-1.8-14.3
	c-1.9-7.6-0.9-15.3-1.5-23c-0.2-1.5-0.6-3-1-4.4c-0.2-0.8-0.3-1.7-0.3-2.5c0-6-0.1-12-0.1-18.1c-0.1-0.9-0.2-1.8-0.3-2.7
	c-0.5,0.2-0.8,0.3-0.8,0.4c-0.7,2.3-1.3,4.5-2,6.8c-0.9,2.9-2,5.7-2.9,8.5c-0.7,2.3-1.3,4.6-2.1,6.9c-0.6,1.9-1.4,3.8-2.1,5.8
	c-0.4,1-0.8,2-1.1,3.1c-0.8,2.4-1.5,4.8-2.2,7.1s-1.7,5-2.6,7.4s-2,4.8-2.8,7.3c-0.8,2.2-1.3,4.6-2.1,6.8c-1.4,3.8-3,7.5-4.5,11.3
	c-0.2,0.5-0.2,1.1-0.3,1.6c-0.4,1.1-0.8,2.2-1.2,3.2c-0.1,0.2-0.3,0.3-0.3,0.5c-0.7,2.5-1.2,5.1-2,7.6c-0.3,1.2-1,2.3-1.4,3.5
	c-1.5,3.7-3,7.4-4.3,11.2c-1,2.7-1,5.7,0.1,8.4c0.9,2.6,1.8,5.3,2.4,8c0.8,2.6,1.7,5.1,2.5,7.6c0.1,0.3,0.4,0.6,0.5,0.9
	c0.7,3.7,1.3,7.4,2,11.1c0.3,1,0.6,1.9,1,2.9c0.1,0.3,0.4,0.6,0.4,1c0.1,3.1,0.6,6.1,1.6,9c1.1,3.7,0.7,7.9,2,11.5s0.8,7.4,1.8,11
	c1.6,5.7,0.8,11.5,1.3,17.3c0.2,1.8,1.2,3.5,1.2,5.3c0.1,11.5,0.6,23.1-0.2,34.6c-0.3,5.1-0.9,10.2-1.4,15.3
	c-0.3,3.8-0.5,7.8-1.7,11.4c-1.2,3.3-1,6.7-1.6,9.9c-0.5,2.8-1.7,5.5-2.5,8.3c-0.3,0.9-0.1,1.8-0.3,2.7c-0.4,1.9-0.9,3.7-1.4,5.6
	c-0.1,0.6-0.2,1.3-0.3,1.9c-0.5,2-1,3.9-1.5,5.8c-0.1,0.5-0.2,1-0.2,1.5c0.1,3.3-1.3,6.1-2.7,8.9c-0.2,0.4-0.3,0.8-0.4,1.2
	c-1,3.3-2,6.5-3,9.8c-0.8,2.6-1.2,5.3-2.1,7.8c-0.8,2.3-2,4.4-3,6.7c-0.6,1.4-1.2,2.8-1.7,4.2c-0.7,2-1.3,4-2.1,5.9s-2,3.8-3,5.7
	c-1.2,2.2-2.3,4.5-3.7,6.6c-1.4,2.2-3,4.3-4.6,6.4c-2,2.6-4.1,5.1-6.4,7.5c-2.2,2.2-4.5,4.2-7.1,6c-2.7,1.7-5.4,3.3-8.2,4.7
	c-0.6,0.3-1.3,0.4-2,0.5c-2.3,0.1-4.5,0.1-6.8,0.2c-4.5,0.3-7.9-2.1-11.3-4.4s-5.3-6-7.3-9.5c-2.8-5-3.7-10.5-5-16
	c-2.4-10-0.8-19.8-1.2-29.7c-0.1-1.6,0.8-3.2,1.1-4.8c0.1-0.8,0.3-1.5,0.3-2.3c0.6-5.4,1-10.8,2-16.1c0.6-3.9,1.7-7.8,3.2-11.5
	c0.9-2.2,1-4.3,1.5-6.4c0.7-2.8,1.9-5.4,2.8-8.1c0.7-2.1,1.2-4.3,1.9-6.4c0.9-2.8,2-5.5,2.9-8.3c0.7-2.3,1.3-4.7,2-7
	c0.3-0.9,0.6-1.7,0.9-2.5c0.3-0.6,0.6-1.3,0.7-1.9c0-3,1.7-5.3,2.8-7.9c0.9-2.2,1.5-4.6,2.3-6.8c0.8-2.5,1.5-4.9,2.4-7.3
	s1.6-4.7,2.5-7c0.5-1.5,1.2-2.9,1.7-4.4c1.1-3.2,2.1-6.4,3.3-9.6c0.5-1.5,1-2.9,1.7-4.3c0.9-2,1.9-3.9,2.7-5.8s1.3-4.2,2.1-6.2
	c0.8-2.3,1.8-4.7,2.6-7c0.7-1.9,1.3-3.8,2.1-5.7c0.9-2.2,1.9-4.2,2.8-6.3c0.1-0.3,0.2-0.5,0.3-0.8c0.7-2.5,1.2-5,2-7.4
	c0.5-1.2,1-2.4,1.6-3.6c0.9-2.1,1.8-4.1,2.7-6.2c0.7-1.8,1.3-3.5,1.8-5.3c1.2-3.7,2.3-7.4,3.7-11c0.7-1.9,1.7-3.7,2.6-5.6
	c0.2-0.3,0.3-0.7,0.5-1c1.1-3.3,2.2-6.5,3.1-9.9c0.7-1.9,0.3-4-0.9-5.6c-1.4-1.8-2.1-4.1-3.4-6c-2.3-3.6-4.8-7.1-7.5-10.5
	c-4-4.8-8.2-9.5-12.7-13.9c-2.6-2.5-5.4-4.8-8.3-6.9c-4.3-3.2-8.5-6.5-13-9.4c-3.3-2.1-6.9-3.7-10.4-5.6c-2.6-1.4-5.2-2.9-7.9-4.2
	c-1.7-0.8-3.5-1.4-5.2-2.2c-2.1-0.9-4.2-1.9-6.3-2.9c-0.2-0.1-0.4-0.2-0.6-0.3c-2.5-0.7-5.1-1.2-7.6-1.9s-5.2-1.6-7.8-2.5
	c-0.1,0-0.3-0.2-0.4-0.2c-3.8-0.7-7.6-1.5-11.4-2.1c-1.6-0.3-2.2,0.5-2.3,2.2c-0.2,1.2-0.6,2.3-1.1,3.4c-0.6,2-1.2,4-1.9,6
	c-0.5,1.4-0.9,2.8-1.4,4.2c-1.7,4.2-3.5,8.3-5.1,12.5c-0.8,2.1-1.3,4.3-2.1,6.4c-0.4,1.2-1.1,2.2-1.7,3.4c-1.6,3.4-3.1,6.9-4.9,10.3
	c-1.9,3.7-4.1,7.2-6.2,10.8c-2.9,5-5.5,10.2-8.7,15.1c-2.1,3.3-5,6.2-7.4,9.3c-1.8,2.3-3.4,4.8-5.2,7c-2.2,2.9-4.6,5.6-7.1,8.2
	c-5.2,5.1-10.5,10.2-16.1,15c-3.8,3.2-8,5.9-12,8.9c-2.5,1.9-5,3.9-7.6,5.6c-2.2,1.5-4.6,2.7-7,4c-3.6,2-7.1,4.1-10.7,6
	c-1.7,0.9-3.6,1.4-5.5,2.2c-1.3,0.5-2.5,1.2-3.7,1.7c-3.8,1.5-7.6,3.1-11.5,4.3c-3,1-6.3,1.4-9.4,2.1c-0.5,0.1-1.1,0-1.4,0.3
	c-2,1.9-4.5,1.4-6.9,1.4c-5.7,0.1-11.3,0-17-0.1c-1.3-0.2-2.5-0.6-3.7-1.1l-1.2-0.4c-3.6-1.1-7.5-1.9-10.9-3.5
	c-2.8-1.3-5-3.9-7.7-5.4c-3.2-1.8-4.9-4.7-6.7-7.5c-1-1.7-1.9-3.4-2.8-5.2c-0.6-1.2-1.2-2.4-1.8-3.7c-1.4-3.3-2.8-6.6-4.3-9.9
	c0-0.1,0-0.1-0.1-0.2c-0.1-4.2-2.5-7.9-2-12.2c0.3-3.4,0.3-6.8,0-10.2c-0.3-5.7,1.1-11,2.9-16.2c1.2-3.7,2.4-7.4,3.8-11
	c0.8-1.9,2-3.7,3-5.6c1.1-2.3,2-4.7,3.3-6.9c1-1.8,2.3-3.5,3.8-4.9c0.7-0.5,1.7-0.7,2.5-0.5c0.3,0,0.7,1.2,0.6,1.8
	c-0.1,3.7-2.1,6.7-3.9,9.7c-0.2,0.3-0.6,0.6-0.7,1c-1.3,4-2.5,8.1-3.8,12.1c-0.9,2.6-1.9,5.1-2.9,7.7c-0.1,0.1-0.1,0.3-0.1,0.4
	c-0.5,8.2-3,16.3-1.4,24.5c0.5,2.7,0.9,5.5,1.5,8.2c0.7,2.9,2.4,5.5,3.7,8.3c0.7,1.8,1.6,3.5,2.8,5.1c3.5,4.2,7,8.5,12.1,11.1
	c2.6,1.3,5,3,7.5,4.5c0.2,0.1,0.4,0.2,0.6,0.2c3.1,0.6,6.4,1,9.4,2c5.4,1.8,10.8,1.2,16.2,0.9c4-0.2,7.9-1.6,11.8-2.5
	c0.4-0.1,0.8-0.2,1.2-0.3c3.3,0.2,5.9-1.8,8.8-2.9c2.3-0.9,4.8-1.5,7-2.4c2.9-1.2,5.6-2.6,8.4-4c1.3-0.7,2.6-1.5,3.9-2.2
	c4.5-2.3,9-4.6,12.9-7.8c1.9-1.6,4.4-2.5,6.5-4c2.2-1.6,4.1-3.8,6.3-5.3c5.3-3.5,9.3-8.4,14-12.6c3.1-2.9,5.9-6,8.6-9.2
	c2.5-2.9,5-5.8,7.3-8.9c3.7-5.1,7.1-10.3,10.7-15.5c1.3-1.8,2.5-3.7,3.7-5.7c1.5-2.6,2.9-5.3,4.4-8s3.1-5.5,4.5-8.3
	c0.3-0.6,0.3-1.4,0.6-2c1.9-3.8,3.9-7.6,5.8-11.4c0.1-0.2,0.2-0.4,0.3-0.5c0.7-2.5,1.2-5,2-7.3s2-4.6,2.9-7c0.8-2.1,1.3-4.3,2-6.5
	c0.8-2.9,1.4-5.9,2.5-8.8c0.5-1.4,0.1-1.6-1-2c-5.8-2.3-11.9-1.4-17.9-1.8c-6.3-0.4-12.5-0.9-18.8-1.2c-2.6-0.1-5.4-0.4-7.8,0.2
	c-6.5,1.7-13.2,0.1-19.6,1.4c-3.9,0.8-7.9,0.6-11.5,1.7c-2.6,0.8-5.2,1-7.8,1.5c-3.4,0.7-6.7,1.8-10.1,2.7c-2.5,0.7-5,1.2-7.6,1.8
	c-2.8,0.6-5.7,1.1-8.5,1.9c-1.8,0.7-3.6,1.6-5.4,2.5c-1.6,0.7-3.2,1.3-4.9,1.8c-2.2,0.8-4.5,1.5-6.7,2.3c-1.2,0.5-2.5,1-3.6,1.6
	c-3.9,2-7.8,4-11.7,6.1c-1.2,0.8-2.4,1.3-3.7,1.8c-1,0.1-1.9-0.3-2.5-1.1c-0.7-1.3-0.2-2.9,1.1-3.6c0,0,0.1,0,0.1-0.1
	c3.5-2,6.9-4.3,10.5-6.2c2.9-1.5,6.1-2.6,9.2-3.8c1.3-0.5,2.6-1.2,3.9-1.8c3.3-1.5,6.5-3,9.8-4.4c1.6-0.6,3.3-1.1,4.9-1.5
	c2.7-0.7,5.4-1.3,8.1-2c0.9-0.3,1.8-0.6,2.7-1c0.3-0.1,0.6-0.4,0.9-0.5c2.1-0.6,4.2-1.1,6.3-1.7c1.9-0.5,3.8-1,5.7-1.3
	c4.8-0.8,9.6-1.4,14.3-2.2c5.4-0.9,10.8-1.8,16.1-2.7c1-0.2,2-0.3,3-0.3c14.3,0,28.6-0.1,42.9,0c2.8,0,5.6,1,8.5,1.3
	c3.1,0.4,2.6,0,3.9-2.7c1.3-2.9,0.5-6.2,1.7-8.8c1.4-3.2,0.6-6.5,1.6-9.4c2.3-7.1,0.9-14.3,1.5-21.5c0.3-3.1-0.2-6.2,0.2-9.2
	c0.6-5.3-0.4-10.6-0.3-15.9s0.4-10.9-0.6-16.1c-0.7-3.4-0.1-7.2-2.4-10.2c-0.1-0.1-0.1-0.3-0.1-0.4c-0.7-3.8-1.2-7.7-2-11.4
	c-0.7-3-1.7-6-2.6-9c-0.7-2.3-1.3-4.7-2.2-7c-0.7-2-1.7-3.9-2.5-5.8c-0.5-1.3-1-2.5-1.5-3.8c-0.9-2.3-1.6-4.6-2.5-6.9
	c-0.4-0.9-1-1.6-1.4-2.5c-1.7-3.3-3.3-6.6-5.1-9.9s-3.7-6.2-5.7-9.3s-3.7-5.8-5.7-8.6c-1.7-2.6-3.6-5.1-5.7-7.4
	c-4.4-4.6-9-9-13.5-13.6c-4.7-4.9-9.5-9.7-14-14.9c-3.2-3.8-6.1-7.8-8.8-12c-1.1-1.6-1.5-3.6-2.3-5.4s-1.7-3.6-2.5-5.4
	c-0.1-0.2-0.3-0.5-0.3-0.8c-0.6-4-1.3-7.9-1.9-11.9c-0.3-1.8-0.6-3.6-0.6-5.4c0-1.2,0.5-2.5,0.6-3.7c0.1-2.5,0-5.1,0.2-7.6
	c0.2-1.1,0.5-2.3,1-3.3c0.1-0.3,0.4-0.7,0.3-1c-0.4-3.1,1.3-5.8,2.2-8.6c1-3.4,2.8-6.6,4.3-9.9c2.6-5.4,6.1-10.4,10.2-14.8
	c3.2-3.3,6.6-6.4,10.2-9.3c1.9-1.7,4-3.1,6.1-4.3c1.9-1,4.2-1.4,6.1-2.4c3.1-1.6,6.4-1.7,9.6-1.5c4.2,0.1,8.1,2.3,10.4,5.9
	c2.2,3.1,3.4,6.9,3.3,10.8c-0.1,2.5,0,5,0.1,7.4c0.1,1.4,0.5,2.9,0.7,4.3c0.2,1.1,0.2,2.2,0.1,3.4c-0.2,2.1-0.7,4.2-0.8,6.3
	c-0.2,4,0,7.9-0.3,11.9c-0.4,4.8-1.1,9.5-1.8,14.2c-0.3,1.8-0.8,3.6-1.6,5.3c-0.6,1-1.5,1.8-2.5,2.3c-0.7,0.4-1.6,0.2-2-0.5
	c-0.2-0.3-0.2-0.6-0.2-0.9c0-1.3-0.3-2.9,0.3-3.9c1.2-2.1,1-4.2,1.1-6.4s-0.2-4.4,1.4-6.3c0.3-0.4,0.2-1.2,0.2-1.9
	c0.1-3.3,0-6.7,0.2-10c0.2-2.2,0.9-4.4,1.2-6.6c0.2-1.7,0.3-3.4,0.3-5.1c-0.1-2.9,0.6-5.9-1.1-8.7c-0.3-0.7-0.4-1.4-0.3-2.1
	c-0.2-4.7-2.3-8.6-5.3-12.1c-1.3-1.3-3-2.1-4.8-2.2c-3-0.3-6,0-8.9,1c-5.4,2.1-10.3,5.4-14.1,9.7c-2.4,2.5-4.9,4.8-7.1,7.4
	c-1.4,1.8-2.6,3.7-3.7,5.7c-0.6,0.9-1.1,1.9-1.7,2.9c-1.6,3-2.8,6.1-3.8,9.3c-1.9,5.1-3,10.5-3.3,16c-0.1,2.4-1.1,4.8-0.9,7
	c0.4,3.9,1.5,7.8,2.4,11.7c0.1,0.6,0.2,1.1,0.3,1.7c0.6,2.8,0.8,5.8,2,8.3c2,4.2,4.5,8.2,7.3,11.9c3.8,4.8,7.9,9.4,12.2,13.8
	c3.2,3.4,6.9,6.2,10.1,9.5c3.9,4,7.5,8.2,11.2,12.3c1.6,1.8,3.5,3.4,5,5.4c3.7,4.9,7.3,10,10.7,15.1c1.4,2.4,2.7,4.8,3.9,7.4
	c2,3.9,4.1,7.6,6,11.6c1,2,1.4,4.2,2.1,6.3c0.9,2.5,2,5,3,7.5c0.1,0.1,0.1,0.3,0.1,0.4c0.6,2.6,1.2,5.2,1.9,7.8
	c0.8,2.8,1.8,5.5,2.6,8.3c0.1,0.2,0.1,0.4,0.2,0.6c0.7,5.5,1.3,11,2,16.5c0.2,1.4,0.8,2.8,1,4.2c0.2,1.2,0.3,2.4,0.4,3.6
	c0.2,2.8-0.5,5.7,1.3,8.2c0.2,0.6,0.3,1.3,0.2,1.9c0,11.8,0,23.5,0,35.3c0,0.6,0.1,1.3-0.2,1.6c-1.9,2.3-1.1,5-1.4,7.5
	c-0.2,1.9-0.8,3.8-1.2,5.7c-0.2,1-0.2,2.1-0.4,3.2c-0.7,5.9-1.3,11.7-2,17.6c-0.3,1.3-0.6,2.6-1.1,3.9c1.3,0.3,2.5,0.7,3.8,1
	c1.9,0.5,3.8,0.9,5.7,1.4c3,0.8,6,1.8,9,2.7c0.3,0.1,0.7,0.2,1,0.3c3.3,0,6,1.8,9,2.9c2.1,0.8,4.3,1.3,6.4,2s3.9,1.6,5.9,2.5
	s3.8,1.6,5.6,2.5c2.5,1.2,5,2.5,7.5,3.9s4.7,2.7,7,4.2c4.3,2.9,9,5.3,12.7,9.1c1.6,1.6,3.7,2.6,5.4,4.1c3.2,2.9,6.1,6,9.2,9
	c1.5,1.5,3.3,2.9,4.7,4.5c1.8,2,3.4,4.3,5,6.5c1.9,2.6,3.8,5.2,5.5,7.9C569.2,589.2,570.2,591.2,571.5,593.6z M571.5,611.6
	c-0.3,0.5-0.6,1-0.8,1.5c-0.7,2.1-1.2,4.2-2,6.3c-0.9,2.6-2,5.2-3,7.7c-0.7,1.8-1.2,3.7-1.9,5.5c-0.9,2.2-2,4.3-2.8,6.5
	s-1.2,4.3-1.9,6.4c-0.5,1.7-1.1,3.4-1.8,5.1c-1.2,2.4-3,4.6-3,7.6c0,0.3-0.3,0.6-0.4,1l-2.8,7.2c-0.4,1-0.7,1.9-1.1,2.9
	c-0.8,2.1-1.6,4.3-2.3,6.4c-0.1,0.4-0.2,0.8-0.4,1.2c-1.3,2.3-2.6,4.6-2.7,7.3c-0.1,0.6-0.2,1.1-0.4,1.6c-1,2.7-2,5.4-3,8.1
	c-0.2,0.4-0.3,0.8-0.5,1.2c-1.4,3.4-2.9,6.7-4.1,10.2c-1.3,3.8-2.5,7.6-3.7,11.4c-0.1,0.2-0.2,0.4-0.3,0.6c-0.8,1.9-1.8,3.8-2.5,5.8
	c-0.8,2.4-1.4,4.8-2.1,7.2c-0.5,1.8-1.1,3.6-1.8,5.3c-1,2.5-2.9,4.7-2.9,7.6c0,0.3-0.1,0.5-0.3,0.8c-0.4,1.3-0.9,2.6-1.3,3.9
	c-0.2,0.6-0.1,1.3-0.3,1.9c-0.9,2.5-2,5-2.8,7.6s-1.3,5.5-2,8.3c-0.1,0.3-0.3,0.7-0.4,1c-1,2.3-1.8,4.6-2.4,7c-0.6,3-0.4,6-1.6,9
	s-0.1,6.9-1.8,10.4c-1.1,2.3-1,5.3-1.4,8c-0.7,4.7-0.9,9.5-1.4,14.2c-0.7,6.8-1.3,13.7,0.8,20.6c0.9,2.9,0.2,6.1,1.6,9
	c1.1,2.2,1.4,4.9,2.1,7.3c0.1,0.2,0.2,0.4,0.3,0.6c1.3,2.2,2.9,4.2,4.5,6.2c2,2.3,4.8,3.8,7.8,4.3c6,0.8,11-1.4,15.5-5
	c2.7-2.4,5.2-4.9,7.6-7.7c1.4-1.5,2.4-3.5,3.9-5c2.6-2.6,4-5.9,5.8-8.9c1.4-2.3,2.4-4.9,3.6-7.4c1.4-2.8,3-5.6,4.3-8.5
	c1.1-2.3,2-4.7,2.9-7.1c0.8-1.9,1.5-3.8,2.2-5.7c0.8-2.6,1.5-5.3,2.2-8c0.5-1.7,0.9-3.4,1.4-5c1-3.5,2-7,3-10.6
	c0.7-2.8,1.2-5.6,1.8-8.3c0-0.2,0.2-0.4,0.2-0.6c0.4-1.3,0.8-2.6,1.1-3.9c0.3-1.9,0.4-3.8,0.7-5.6c0.2-1.3,0.8-2.5,1-3.8
	c0.3-2,0.1-4,0.5-5.9c0.7-3.3,2-6.4,2.6-9.6c0.8-4.7,0.9-9.5,1.4-14.2c1-9.5,0.7-19.3,0.5-28.9c-0.2-7.4,0.6-14.8-1.3-22.1
	c-0.8-3.2-0.3-6.8-0.4-10.2c-0.1-0.9-0.2-1.8-0.4-2.7c-0.9-3.9-1.9-7.7-2.6-11.6c-0.4-2.1,0.3-4.7-0.5-6.5c-1.3-2.9-1.2-5.8-1.4-8.7
	c-0.1-0.6-0.2-1.1-0.4-1.6c-0.4-1.3-0.9-2.5-1.3-3.8c-0.3-1.1-0.6-2.1-0.9-3.2c-0.7-2.6-1.5-5.2-2.2-7.8c-0.8-3.1-1.6-6.3-2.4-9.4
	C572.8,614.3,572.2,612.9,571.5,611.6L571.5,611.6z M685.4,561.8h0.5c0.7-1.9,1.5-3.8,2.2-5.7c1.1-3.4,2-6.8,3-10.2
	c0.7-2.5,1.4-4.9,2.1-7.4s0.8-5.4,2-7.7c1.8-3.3,1.6-7,2.7-10.4s1.6-7.1,2.3-10.6c0.1-0.2,0.1-0.4,0.2-0.6c1-2.3,1.8-4.6,2.4-7
	c0.5-2.5,0-5,1.6-7.4c1.2-1.9,1.2-4.7,1.6-7.1c0.6-3,1.1-6,1.6-9.1c0.7-4.5,1.3-9,2-13.5c0.6-4.3,1.2-8.6,1.8-12.9
	c0-0.2,0.1-0.4,0.2-0.6c1.8-2.5,1.2-5.3,1.3-8c0.1-4,0.2-7.9,0.3-11.9c0-0.7,0.1-1.4,0.3-2.1c0.4-1.6,0.8-3.2,1-4.8
	c0.2-2.3,0.1-4.7,0-7c0-1,0.2-2.3-0.3-2.9c-1.4-1.8-0.9-3.8-1.2-5.7c-0.6-4.1,1.1-8.5-1.7-12.3c-0.1-0.2-0.1-0.5-0.1-0.8
	c-0.5-3.7-2.4-6.5-4.9-9.1c-0.2-0.2-1-0.3-1.1-0.2c-0.8,0.9-1.5,1.9-2,3c-1.3,2.6-2.5,5.2-3.7,7.9c-1.6,3.1-3,6.2-4.3,9.5
	c-0.9,3-1.5,6-2,9c-0.1,0.4-0.2,0.7-0.3,1c-0.9,3.3-2,6.5-2.7,9.8c-0.8,3.8-1.2,7.8-1.8,11.6c-0.3,1.7-1.1,3.3-1.3,5
	c-0.3,3.2,0.2,6.7-0.7,9.7c-0.7,2.9-1.1,5.9-1.2,8.9c-0.1,2-0.1,4.1-0.1,6.2c-0.1,2.9-0.2,5.8-0.4,8.7c-0.2,1.9-0.9,3.8-0.9,5.8
	c-0.1,14.7-0.3,29.5,0,44.2c0.1,6.5-1.2,13.2,1.3,19.5c0.1,0.3,0.1,0.7,0.1,1c0.1,4,0.2,8.1,0.3,12.1
	C685.1,560.3,685.2,561,685.4,561.8L685.4,561.8z M686.6,593.8h0.1c0,2.3,0,4.5,0,6.8c0,2.2,0.5,4.4,1.5,6.4
	c1.4,3.3,3.5,6.3,6.1,8.8c1.6,1.4,5.8,1.1,6.5-0.5c3.1-5.6,4.8-11.9,4.8-18.3c0.3-4.1,0-8.2-0.9-12.1c-0.6-3-1.9-5.9-3.8-8.4
	c-1.5-1.7-3.5-2.8-5.8-1.9c-3.5,1.4-8.8,6.8-8.5,11.6C686.7,588.7,686.6,591.3,686.6,593.8L686.6,593.8z"/>
<path class="st0" d="M760.5,589.1c-1.6,2.5-3.3,4.8-5.2,7.1c-2.7,3.1-5.8,6-9.2,8.4c-3.7,2.5-8.3,3.2-12.6,2c-2.6-0.7-5.4-2-6.3-5.3
	c-0.2-0.6-1-1-1.5-1.6c-1.3-1.4-1.1-3.5-1.9-4.9c-2.5-4.3-1.1-8.8-1.4-13.2c-0.1-1,0.6-2,1-3c0.2-0.5,0.5-0.9,0.5-1.4
	c-0.2-3.2,1.8-5.5,3-8.2c2.4-5.2,6.5-8.6,10.5-12.2c2-1.8,4.7-2.5,7.1-3.9c3.9-2.1,8.5-2.2,12.5-0.3c1.7,0.8,2.7,0.2,2.7-1.7
	c0.2-6.8-0.2-13.7,0.7-20.4c1.8-14-0.1-28,1.7-41.9c1.3-9.6,0.5-19.2,1.1-28.8c0.1-2-0.2-4,1.3-5.6c0.3-0.4,0.2-1.1,0.3-1.6
	c0-2.5,0.2-5,0.1-7.4c-0.4-7.1,0.8-14,1.6-21c0.6-5.4,1-10.9,1.5-16.3c0.4-1.7,1.8-3,3.5-3.3c1.3,0,3,2.1,3.4,3.7
	c3,11.5,1.2,23.2,1.5,34.8c0.2,7.8,0,15.6-0.2,23.4c-0.2,1.9-0.5,3.9-1,5.8c-0.2,0.8-0.3,1.5-0.3,2.3c-0.1,3.6,0,7.2-0.2,10.8
	c-0.3,1.6-0.7,3.2-1.2,4.7c-0.2,0.7-0.3,1.4-0.3,2.1c0,2.8,0,5.7-0.1,8.5c-0.2,3.3-0.1,6.6-1,10c-1,3.7-0.5,7.9-0.8,11.8
	c-0.5,6-0.6,12.2-1.9,18c-0.8,3.6-0.7,7.1-1.1,10.7c-0.2,1.5-0.6,3-1,4.5c-0.1,0.3-0.2,0.7-0.3,1c0,6.2-0.8,12.5,0.2,18.5
	c1.1,6.4,0.8,12.6,0.9,19c0.1,2.3-0.9,4.5-2.8,5.8c-0.9,0.5-1.9,0.7-2.8,0.5c-0.4,0-0.8-1.2-0.8-1.9c-0.1-2.3,0-4.7-0.1-7
	c0-0.6-0.1-1.3-0.2-1.9L760.5,589.1z M728.8,582c0.7,4,1.3,7.7,2,11.4c0,0.4,0.2,0.7,0.4,1c2,2.4,3.4,5.1,6.9,6.4
	c2.4,0.9,5.1,0.5,7-1.2c4.7-3.4,8-8.2,10.5-13.7c1.6-3.8,2.9-7.8,3.9-11.8c1.2-4.3,1.4-9-2.9-12.4c-2.5-1.9-5-3.8-8.1-3.6
	c-3.2,0.1-6.3,1.1-8.9,3c-3.7,2.9-6.9,6.4-8.6,10.8C729.7,575.1,729.5,578.7,728.8,582z M766.9,533.2c0.5-0.5,0.7-0.5,0.8-0.7
	c0.1-0.2,0.1-0.4,0.1-0.6c0.4-6.9,0.2-13.8,1.6-20.8c1.3-6.5,0.4-13.3,1.7-20c0.8-4,0.3-8.3,0.6-12.5c0.1-2.1,1.1-4.1,1.1-6.2
	c0.2-11.8,0.2-23.5,0.3-35.3c-0.1-0.9,0.1-1.8,0.4-2.7c1.5-2.6,1.6-5.1-0.1-7.6c-0.2-0.5-0.3-1.1-0.3-1.6c-0.1-1.6-0.1-3.3-0.1-4.9
	s0-3.4,0-5.1h-1c-0.2,1.4-0.3,2.8-0.5,4.2c-0.7,6.3,0,12.6-1.1,19c-1.3,7.5-1.5,15.3-1.9,22.9c-0.4,7.1-0.2,14.2-0.5,21.2
	c-0.1,3.4-1.1,6.8-1.2,10.2c-0.2,12.6-0.1,25.2-0.1,37.8C766.8,531.3,766.9,532,766.9,533.2L766.9,533.2z"/>
<path class="st0" d="M529.9,367.7c-0.7,4.6-1,8.9-1.9,13.1c-0.6,2.9-1.6,5.6-3,8.2c-2.4,4.4-4.8,9-8,12.9
	c-3.5,4.3-7.3,8.6-12.5,11.1c-2.8,1.3-5.4,3.1-8.3,4.1c-1.9,0.6-3.9,0.4-5.6-0.6c-3.5-1.7-6.5-4.3-8.6-7.5c-1.2-1.7-1.6-3.8-2.6-5.6
	c-1.9-3.3-1.6-7-1.9-10.6c-0.1-1.8-1.5-3.8-1-5.2c1.4-3.7,0.6-7.4,1.4-11c0.5-2.2,1.9-4.2,2.7-6.4c1.5-4,4.1-7.3,7-10.4
	c2.1-2.3,4.5-4.4,7.1-6.1c2.5-1.8,5.3-3.3,8.3-4.4c4.7-1.6,9.5-3.3,14.7-0.9c3,1.4,6,2.7,8.1,5.3c1.1,1.2,1.9,2.7,2.5,4.2
	C528.9,361.2,529.3,364.6,529.9,367.7z M482.7,385.2L482.7,385.2c-0.1,1.5-0.1,3,0,4.5c0.3,1.4,0.8,2.8,1.3,4.1
	c0.1,0.4,0.1,0.9,0.2,1.3c0.5,2.1,1.3,4.1,2.1,6c1.7,3.1,3.8,6.1,5.6,9.1c1.2,2,4.1,3,6.1,1.8c3.8-2.3,7.7-4.3,10.9-7.5
	c3-3.1,5.7-6.5,7.9-10.2c0.8-1.3,1.5-2.7,2.1-4.1c1-1.7,1.8-3.5,2.4-5.4c0.8-3.3,1.3-6.7,2-10c0.1-0.6,0.6-1.1,0.7-1.8
	c0.2-1.4,0.3-2.8,0.2-4.1c0-0.8-0.8-1.6-0.8-2.3c0-3.1-1.3-6.1-3.4-8.4c-2-2.3-4.4-4-7.5-4.3c-4.4-0.4-8.8-0.4-12.7,2
	c-2.1,1.2-4.1,2.6-5.9,4.2c-1.9,2-3.7,4.1-5.4,6.4c-2.3,2.8-4,5.8-4.3,9.5c-0.1,0.6-0.3,1.2-0.6,1.8c-0.4,1.2-0.7,2.4-0.9,3.6
	C482.7,382.5,482.6,383.9,482.7,385.2z"/>
<path class="st0" d="M818.7,525.3c-1,2.4-2.2,4.7-3.4,7c-0.3,0.5-0.5,1-0.8,1.6c-0.8,1.6-1.7,3.1-2.5,4.7c-0.2,0.6-0.4,1.2-0.6,1.8
	c-0.3,0.9-0.7,1.7-1,2.6l-0.2,0.4c-0.2,0.4-0.3,0.8-0.5,1.2c-1.5,3.5-2.9,7.1-4.4,10.6c-0.1,0.2-0.2,0.4-0.2,0.6
	c-0.7,2.9-1.2,5.9-2,8.7c-0.7,2.3-1.8,4.6-2.7,6.9c-0.1,0.2-0.2,0.4-0.3,0.6c-0.7,3-1.1,6.1-2,9.1c-0.8,2.9-1.8,5.6-3,8.3
	c-0.7,1.7-2.5,1.6-3.9,1c-0.6-0.3-0.8-1.2-1.1-2c0-0.2-0.1-0.3-0.2-0.5c-0.4-1-0.7-2-1-3c-0.1-0.2-0.2-0.4-0.3-0.6
	c-0.8-3-1.4-6.1-1.8-9.2c-0.4-4.9-0.2-9.9-0.4-14.9c-0.1-2.8-1-5.6-0.9-8.3c0.1-2.8,0.4-5.5,0.8-8.2c0.2-1,0.3-1.9,0.5-2.8
	c0.4-1.1,1.3-2.1,2.5-2.5c0.8-0.4,1.7-0.2,2.2,0.6c0.2,0.3,0.3,0.8,0.2,1.2c-0.2,1.5-0.4,3-0.8,4.5c-0.2,0.4-0.3,0.9-0.3,1.4
	c0.2,2.1,0.4,4.2,0.6,6.4s0.4,4,0.6,6c0.2,2.4-0.1,4.7,1.2,7c0.5,1.2,0.7,2.5,0.7,3.8c0,0.3,0.1,0.6,0.1,0.8h0.6
	c0.1-0.5,0.2-0.9,0.3-1.4c1-3.3,2.3-6.5,3.1-9.8c0.5-2.3,1.9-4,2.3-6.5c0.5-3.3,2.3-6.3,3.7-9.4c1.1-2.5,2.3-4.9,3.5-7.2l0.7-1.4
	c0.8-1.5,1.8-2.9,2.7-4.3l0.2-0.3c1.3-2.2,2.3-4.5,3.7-6.6c1.2-1.8,2.5-3.6,3.9-5.2c0.6-0.5,1.4-0.6,2.1-0.5
	c0.4,0.1,0.6,1.2,0.7,1.8C821.6,521.5,819.6,523.2,818.7,525.3z"/>
</svg>
