<?xml version="1.0" encoding="utf-8"?>
<!-- Generator: Adobe Illustrator 23.0.6, SVG Export Plug-In . SVG Version: 6.00 Build 0)  -->
<svg version="1.1" id="Layer_1" xmlns="http://www.w3.org/2000/svg" xmlns:xlink="http://www.w3.org/1999/xlink" x="0px" y="0px"
	 viewBox="0 0 1080 1080" style="enable-background:new 0 0 1080 1080;" xml:space="preserve">
<style type="text/css">
	.st0{fill:#FFFFFF;}
</style>
<title>VDoroge</title>
<polygon class="st0" points="786.7,400.5 540,785.8 293.3,400.5 476,306.8 540,339.7 371.2,426.3 540,690 708.8,426.3 633.4,387.6 
	656,333.5 786.7,400.5 "/>
<polygon class="st0" points="719.1,182 540,611.7 446.6,387.6 490.7,365 540,483.3 611.9,310.8 604,306.8 540,273.9 719.1,182 "/>
<polygon class="st0" points="611.9,310.8 589.3,365 476,306.8 468.1,310.8 424,333.5 360.9,182 611.9,310.8 "/>
<path class="st0" d="M530.1,845.5c-2.1-3.8-5.2-6.9-9-9c-3.8-2.2-8-3.3-12.4-3.3c-13.4,0.1-24.2,11.1-24.1,24.5
	c-0.1,6.5,2.4,12.8,7.1,17.3c4.5,4.6,10.7,7.2,17.1,7.1c4.4,0,8.7-1.1,12.5-3.2c3.7-2.1,6.8-5.2,8.9-9c2.2-3.7,3.3-8,3.3-12.3
	C533.4,853.3,532.3,849.1,530.1,845.5z M518,867.5c-5,5-13.1,5.1-18.1,0.1c0,0,0,0-0.1-0.1c-2.5-2.7-3.7-6.2-3.6-9.8
	c-0.1-3.6,1.2-7,3.6-9.6c5-5,13.2-5,18.2,0C522.8,853.6,522.8,861.9,518,867.5L518,867.5z"/>
<path class="st0" d="M584.7,840.1c-3.9-4.4-9.6-7-15.5-6.9c-2.7,0-5.4,0.5-7.9,1.6c-2.6,1.1-4.9,2.7-6.8,4.8v-5.1h-11.6V898h11.6
	v-22c2,2,4.3,3.6,6.9,4.7c2.4,1,4.9,1.5,7.5,1.4c6,0,11.7-2.5,15.6-7c4.4-4.7,6.8-10.9,6.6-17.4C591.1,850.6,589,844.7,584.7,840.1z
	 M575.8,867.6c-2.3,2.5-5.6,3.9-9,3.9c-3.5,0.1-6.8-1.3-9.2-3.8c-2.5-2.7-3.8-6.3-3.6-10c-0.2-3.6,1.2-7.2,3.6-9.8
	c2.4-2.5,5.7-3.9,9.2-3.8c3.4-0.1,6.7,1.3,9.1,3.8c2.4,2.7,3.7,6.2,3.6,9.8C579.6,861.3,578.3,864.9,575.8,867.6L575.8,867.6z"/>
<path class="st0" d="M644,845.5c-2.1-3.8-5.2-6.9-9-9c-3.8-2.2-8-3.3-12.4-3.3c-13.4,0.2-24.2,11.1-24.1,24.5
	c-0.1,6.5,2.4,12.8,7.1,17.3c4.5,4.6,10.7,7.2,17.1,7.1c4.4,0,8.7-1.1,12.5-3.2c3.7-2.1,6.8-5.2,8.9-9c2.2-3.7,3.3-8,3.3-12.3
	C647.4,853.3,646.2,849.1,644,845.5z M631.9,867.5c-2.4,2.5-5.7,3.9-9.1,3.8c-3.4,0.1-6.7-1.3-9.1-3.8c-2.5-2.7-3.7-6.2-3.6-9.8
	c-0.1-3.6,1.2-7.1,3.6-9.7c5-5,13.2-5,18.2,0c0,0,0,0,0,0C636.8,853.6,636.8,861.9,631.9,867.5L631.9,867.5z"/>
<path class="st0" d="M656.8,834.4V881h11.7v-35.5H684v-11.1H656.8z"/>
<path class="st0" d="M738.6,858.8c0-7.7-2.3-13.9-6.9-18.6c-4.6-4.7-10.6-7-17.9-7c-6.5-0.2-12.7,2.4-17.2,7
	c-4.6,4.7-6.9,10.6-6.9,17.7c-0.2,6.5,2.3,12.7,6.9,17.3c4.6,4.6,10.5,6.9,17.8,6.9c4.2,0.1,8.4-0.8,12.2-2.5
	c3.6-1.8,6.6-4.4,8.8-7.7l-9.8-4.6c-3,3-7,4.6-11.3,4.6c-3.3,0.1-6.4-0.9-9-2.9c-2.4-2-3.9-4.8-4.3-7.9h37.5L738.6,858.8z
	 M701.5,851.8c0.9-2.3,2.4-4.4,4.3-6c2.5-1.8,5.5-2.8,8.6-2.8c2.8-0.1,5.6,0.8,7.9,2.4c2.2,1.5,3.8,3.8,4.6,6.3L701.5,851.8z"/>
<path class="st0" d="M453.7,827.8l-3.9-9.8l-6-15.2l-6.1,15.2l-4.4,11l-20.7,52H475L453.7,827.8z M443.9,834.8l13.8,35h-27.6
	L443.9,834.8z"/>
<path class="st0" d="M399.7,804l-4.4,11.3l0,0l-13.8,35L368,816l-0.3-0.7l0,0l-4.5-11.3h-12.9l4.5,11.3l16.8,42l3.9,9.7l6,15.2
	l6.1-15.2l4.4-11l16.2-40.7l4.5-11.3H399.7z"/>
</svg>
